<svg xmlns="http://www.w3.org/2000/svg" width="2550" height="3300" viewBox="0 0 2550 3300">
<rect width="100%" height="100%" fill="white"/>
<g fill="none" stroke="black" stroke-width="14" stroke-linecap="round" stroke-linejoin="round">
  <rect x="90" y="90" width="2370" height="3120" rx="60"/>
  <path d="M240 2870 C500 2680, 850 2660, 1180 2850 S1900 3010, 2290 2820"/>
  <path d="M260 2720 C520 2530, 870 2510, 1200 2700 S1910 2860, 2280 2660"/>
  <ellipse cx="1275" cy="1580" rx="420" ry="520"/>
  <ellipse cx="1080" cy="760" rx="120" ry="350" transform="rotate(-8 1080 760)"/>
  <ellipse cx="1460" cy="760" rx="120" ry="350" transform="rotate(8 1460 760)"/>
  <ellipse cx="1275" cy="1520" rx="150" ry="180"/>
  <circle cx="1160" cy="1460" r="30"/>
  <circle cx="1390" cy="1460" r="30"/>
  <path d="M1275 1490 L1238 1540 L1312 1540 Z"/>
  <path d="M1190 1600 C1240 1660, 1310 1660, 1360 1600"/>
  <path d="M1275 1538 L1275 1610"/>
  <path d="M1075 1750 C930 1880, 870 2040, 870 2260"/>
  <path d="M1475 1750 C1620 1880, 1680 2040, 1680 2260"/>
  <path d="M1160 2080 C1030 2250, 1030 2460, 1140 2590"/>
  <path d="M1390 2080 C1520 2250, 1520 2460, 1410 2590"/>
  <ellipse cx="1100" cy="2570" rx="120" ry="80"/>
  <ellipse cx="1450" cy="2570" rx="120" ry="80"/>
  <ellipse cx="420" cy="2650" rx="120" ry="170"/>
  <path d="M420 2480 L420 2820"/>
  <path d="M300 2650 L540 2650"/>
  <ellipse cx="720" cy="2800" rx="110" ry="150"/>
  <path d="M720 2650 L720 2950"/>
  <path d="M610 2800 L830 2800"/>
  <ellipse cx="1840" cy="2750" rx="110" ry="150"/>
  <path d="M1840 2600 L1840 2900"/>
  <path d="M1730 2750 L1950 2750"/>
  <ellipse cx="2080" cy="2620" rx="130" ry="180"/>
  <path d="M2080 2440 L2080 2800"/>
  <path d="M1955 2620 L2205 2620"/>
</g>
<g fill="none" stroke="black" stroke-width="10" stroke-linecap="round" stroke-linejoin="round"><ellipse cx="360" cy="2200" rx="110" ry="150"/>
<path d="M 283 2200 C 327 2148, 393 2252, 437 2200"/>
<path d="M 294 2140 C 349 2192, 376 2102, 420 2170"/>
<path d="M 300 2252 C 349 2305, 388 2208, 420 2268"/>
<ellipse cx="590" cy="2380" rx="120" ry="165"/>
<path d="M 506 2380 C 554 2322, 626 2438, 674 2380"/>
<path d="M 518 2314 C 578 2372, 608 2273, 656 2347"/>
<path d="M 524 2438 C 578 2496, 620 2388, 656 2454"/>
<ellipse cx="1960" cy="2300" rx="120" ry="170"/>
<path d="M 1876 2300 C 1924 2240, 1996 2360, 2044 2300"/>
<path d="M 1888 2232 C 1948 2292, 1978 2190, 2026 2266"/>
<path d="M 1894 2360 C 1948 2419, 1990 2308, 2026 2376"/>
<ellipse cx="2160" cy="2140" rx="105" ry="145"/>
<path d="M 2086 2140 C 2128 2089, 2192 2191, 2234 2140"/>
<path d="M 2097 2082 C 2150 2133, 2176 2046, 2218 2111"/>
<path d="M 2102 2191 C 2150 2242, 2186 2147, 2218 2205"/>
<ellipse cx="1670" cy="2480" rx="100" ry="140"/>
<path d="M 1600 2480 C 1640 2431, 1700 2529, 1740 2480"/>
<path d="M 1610 2424 C 1660 2473, 1685 2389, 1725 2452"/>
<path d="M 1615 2529 C 1660 2578, 1695 2487, 1725 2543"/>
<path d="M 350 2860 C 385 2790, 420 2720, 420 2650"/>
<circle cx="420" cy="2630" r="18"/>
<circle cx="392" cy="2660" r="18"/>
<circle cx="448" cy="2660" r="18"/>
<path d="M 630 2860 C 665 2790, 700 2720, 700 2650"/>
<circle cx="700" cy="2630" r="18"/>
<circle cx="672" cy="2660" r="18"/>
<circle cx="728" cy="2660" r="18"/>
<path d="M 910 2860 C 945 2790, 980 2720, 980 2650"/>
<circle cx="980" cy="2630" r="18"/>
<circle cx="952" cy="2660" r="18"/>
<circle cx="1008" cy="2660" r="18"/>
<path d="M 1190 2860 C 1225 2790, 1260 2720, 1260 2650"/>
<circle cx="1260" cy="2630" r="18"/>
<circle cx="1232" cy="2660" r="18"/>
<circle cx="1288" cy="2660" r="18"/>
<path d="M 1470 2860 C 1505 2790, 1540 2720, 1540 2650"/>
<circle cx="1540" cy="2630" r="18"/>
<circle cx="1512" cy="2660" r="18"/>
<circle cx="1568" cy="2660" r="18"/>
<path d="M 1750 2860 C 1785 2790, 1820 2720, 1820 2650"/>
<circle cx="1820" cy="2630" r="18"/>
<circle cx="1792" cy="2660" r="18"/>
<circle cx="1848" cy="2660" r="18"/>
<path d="M 2030 2860 C 2065 2790, 2100 2720, 2100 2650"/>
<circle cx="2100" cy="2630" r="18"/>
<circle cx="2072" cy="2660" r="18"/>
<circle cx="2128" cy="2660" r="18"/>
</g><text x="1275" y="3160" text-anchor="middle" font-family="Arial, sans-serif" font-size="120" font-weight="700" fill="black">Bunny Garden</text></svg>