<svg xmlns="http://www.w3.org/2000/svg" width="2550" height="3300" viewBox="0 0 2550 3300">
<rect width="100%" height="100%" fill="white"/>
<g fill="none" stroke="black" stroke-linecap="round" stroke-linejoin="round">
  <rect x="90" y="90" width="2370" height="3120" rx="60" stroke-width="14"/>
  <ellipse cx="1275" cy="1570" rx="620" ry="980" stroke-width="14"/>
  <ellipse cx="1275" cy="1570" rx="520" ry="880" stroke-width="10"/>
  <ellipse cx="1275" cy="1570" rx="420" ry="780" stroke-width="10"/>
<path d="M 800 910 C 980 830, 1120 990, 1275 910 C 1430 830, 1570 990, 1750 910" stroke-width="8"/>
<path d="M 800 1120 C 980 1040, 1120 1200, 1275 1120 C 1430 1040, 1570 1200, 1750 1120" stroke-width="8"/>
<path d="M 800 1330 C 980 1250, 1120 1410, 1275 1330 C 1430 1250, 1570 1410, 1750 1330" stroke-width="8"/>
<path d="M 800 1570 C 980 1490, 1120 1650, 1275 1570 C 1430 1490, 1570 1650, 1750 1570" stroke-width="8"/>
<path d="M 800 1820 C 980 1740, 1120 1900, 1275 1820 C 1430 1740, 1570 1900, 1750 1820" stroke-width="8"/>
<path d="M 800 2040 C 980 1960, 1120 2120, 1275 2040 C 1430 1960, 1570 2120, 1750 2040" stroke-width="8"/>
<path d="M 800 2250 C 980 2170, 1120 2330, 1275 2250 C 1430 2170, 1570 2330, 1750 2250" stroke-width="8"/>
<circle cx="1525" cy="1570" r="45" stroke-width="8"/>
<circle cx="1491" cy="1726" r="45" stroke-width="8"/>
<circle cx="1400" cy="1840" r="45" stroke-width="8"/>
<circle cx="1275" cy="1882" r="45" stroke-width="8"/>
<circle cx="1151" cy="1840" r="45" stroke-width="8"/>
<circle cx="1059" cy="1726" r="45" stroke-width="8"/>
<circle cx="1025" cy="1570" r="45" stroke-width="8"/>
<circle cx="1059" cy="1414" r="45" stroke-width="8"/>
<circle cx="1150" cy="1300" r="45" stroke-width="8"/>
<circle cx="1275" cy="1258" r="45" stroke-width="8"/>
<circle cx="1400" cy="1300" r="45" stroke-width="8"/>
<circle cx="1491" cy="1414" r="45" stroke-width="8"/>
<path d="M 1601 1734 Q 1671 1664 1741 1734 Q 1671 1804 1601 1734" stroke-width="7"/>
<path d="M 1494 2019 Q 1564 1949 1634 2019 Q 1564 2089 1494 2019" stroke-width="7"/>
<path d="M 1311 2183 Q 1381 2113 1451 2183 Q 1381 2253 1311 2183" stroke-width="7"/>
<path d="M 1099 2183 Q 1169 2113 1239 2183 Q 1169 2253 1099 2183" stroke-width="7"/>
<path d="M 916 2019 Q 986 1949 1056 2019 Q 986 2089 916 2019" stroke-width="7"/>
<path d="M 809 1734 Q 879 1664 949 1734 Q 879 1804 809 1734" stroke-width="7"/>
<path d="M 809 1406 Q 879 1336 949 1406 Q 879 1476 809 1406" stroke-width="7"/>
<path d="M 916 1121 Q 986 1051 1056 1121 Q 986 1191 916 1121" stroke-width="7"/>
<path d="M 1099 957 Q 1169 887 1239 957 Q 1169 1027 1099 957" stroke-width="7"/>
<path d="M 1311 957 Q 1381 887 1451 957 Q 1381 1027 1311 957" stroke-width="7"/>
<path d="M 1494 1121 Q 1564 1051 1634 1121 Q 1564 1191 1494 1121" stroke-width="7"/>
<path d="M 1601 1406 Q 1671 1336 1741 1406 Q 1671 1476 1601 1406" stroke-width="7"/>
<path d="M 1455 1570 Q 1523 1646 1615 1570 Q 1523 1494 1455 1570" stroke-width="8"/>
<path d="M 1430 1659 Q 1451 1760 1569 1739 Q 1528 1627 1430 1659" stroke-width="8"/>
<path d="M 1365 1725 Q 1332 1823 1445 1864 Q 1465 1746 1365 1725" stroke-width="8"/>
<path d="M 1275 1750 Q 1199 1818 1275 1910 Q 1351 1818 1275 1750" stroke-width="8"/>
<path d="M 1186 1725 Q 1085 1746 1106 1864 Q 1218 1823 1186 1725" stroke-width="8"/>
<path d="M 1120 1659 Q 1022 1627 981 1739 Q 1099 1760 1120 1659" stroke-width="8"/>
<path d="M 1095 1570 Q 1027 1494 935 1570 Q 1027 1646 1095 1570" stroke-width="8"/>
<path d="M 1120 1480 Q 1099 1380 981 1400 Q 1022 1513 1120 1480" stroke-width="8"/>
<path d="M 1185 1415 Q 1218 1317 1105 1276 Q 1085 1394 1185 1415" stroke-width="8"/>
<path d="M 1275 1390 Q 1351 1322 1275 1230 Q 1199 1322 1275 1390" stroke-width="8"/>
<path d="M 1365 1415 Q 1465 1394 1445 1276 Q 1332 1317 1365 1415" stroke-width="8"/>
<path d="M 1430 1480 Q 1528 1513 1569 1400 Q 1451 1380 1430 1480" stroke-width="8"/>
<circle cx="1275" cy="1570" r="120" stroke-width="9"/>
<circle cx="1275" cy="1570" r="55" stroke-width="8"/>
</g><text x="1275" y="3160" text-anchor="middle" font-family="Arial, sans-serif" font-size="120" font-weight="700" fill="black">Ornate Easter Egg</text></svg>