<svg xmlns="http://www.w3.org/2000/svg" width="2550" height="3300" viewBox="0 0 2550 3300">
<rect width="100%" height="100%" fill="white"/>
<g fill="none" stroke="black" stroke-width="14" stroke-linecap="round" stroke-linejoin="round">
  <rect x="90" y="90" width="2370" height="3120" rx="60"/>
  <path d="M735 2160 C 860 1270, 1690 1270, 1815 2160"/>
  <path d="M780 2180 H1770"/>
  <path d="M760 2200 C 780 2600, 960 2860, 1275 2880 C 1590 2860, 1770 2600, 1790 2200 Z"/>
  <path d="M760 2380 C 1040 2460, 1510 2460, 1790 2380"/>
  <path d="M760 2570 C 1040 2650, 1510 2650, 1790 2570"/>
  <path d="M945 2200 V2860"/>
  <path d="M1120 2200 V2880"/>
  <path d="M1275 2200 V2890"/>
  <path d="M1430 2200 V2880"/>
  <path d="M1605 2200 V2860"/>
<ellipse cx="980" cy="1950" rx="140" ry="185"/>
<path d="M 896 1904 C 952 1848, 1008 1968, 1064 1913"/>
<path d="M 903 1996 C 952 2052, 1015 1941, 1057 2006"/>
<ellipse cx="1275" cy="1840" rx="150" ry="205"/>
<path d="M 1185 1789 C 1245 1727, 1305 1860, 1365 1799"/>
<path d="M 1192 1891 C 1245 1953, 1312 1830, 1358 1902"/>
<ellipse cx="1570" cy="1950" rx="140" ry="185"/>
<path d="M 1486 1904 C 1542 1848, 1598 1968, 1654 1913"/>
<path d="M 1493 1996 C 1542 2052, 1605 1941, 1647 2006"/>
<path d="M 350 2770 C 390 2610, 410 2510, 390 2410"/>
<path d="M 385 2600 C 320 2560, 280 2610, 330 2670"/>
<path d="M 385 2570 C 460 2540, 495 2600, 445 2665"/>
<path d="M 395 2450 Q 360 2360 395 2290 Q 430 2360 395 2450"/>
<path d="M 395 2450 Q 330 2410 310 2330 Q 360 2350 395 2450"/>
<path d="M 395 2450 Q 460 2410 480 2330 Q 430 2350 395 2450"/>
<path d="M 520 2470 C 560 2310, 580 2210, 560 2110"/>
<path d="M 555 2300 C 490 2260, 450 2310, 500 2370"/>
<path d="M 555 2270 C 630 2240, 665 2300, 615 2365"/>
<path d="M 565 2150 Q 530 2060 565 1990 Q 600 2060 565 2150"/>
<path d="M 565 2150 Q 500 2110 480 2030 Q 530 2050 565 2150"/>
<path d="M 565 2150 Q 630 2110 650 2030 Q 600 2050 565 2150"/>
<path d="M 2130 2790 C 2170 2630, 2190 2530, 2170 2430"/>
<path d="M 2165 2620 C 2100 2580, 2060 2630, 2110 2690"/>
<path d="M 2165 2590 C 2240 2560, 2275 2620, 2225 2685"/>
<path d="M 2175 2470 Q 2140 2380 2175 2310 Q 2210 2380 2175 2470"/>
<path d="M 2175 2470 Q 2110 2430 2090 2350 Q 2140 2370 2175 2470"/>
<path d="M 2175 2470 Q 2240 2430 2260 2350 Q 2210 2370 2175 2470"/>
<path d="M 1980 2460 C 2020 2300, 2040 2200, 2020 2100"/>
<path d="M 2015 2290 C 1950 2250, 1910 2300, 1960 2360"/>
<path d="M 2015 2260 C 2090 2230, 2125 2290, 2075 2355"/>
<path d="M 2025 2140 Q 1990 2050 2025 1980 Q 2060 2050 2025 2140"/>
<path d="M 2025 2140 Q 1960 2100 1940 2020 Q 1990 2040 2025 2140"/>
<path d="M 2025 2140 Q 2090 2100 2110 2020 Q 2060 2040 2025 2140"/>
<path d="M 580 920 C 460 830, 420 950, 540 980"/>
<path d="M 580 920 C 700 830, 740 950, 620 980"/>
<path d="M 580 920 C 480 1000, 500 1100, 570 1080"/>
<path d="M 580 920 C 680 1000, 660 1100, 590 1080"/>
<path d="M 580 880 L 580 1070"/>
<path d="M 580 880 L 550 810"/>
<path d="M 580 880 L 610 810"/>
<path d="M 1920 980 C 1800 890, 1760 1010, 1880 1040"/>
<path d="M 1920 980 C 2040 890, 2080 1010, 1960 1040"/>
<path d="M 1920 980 C 1820 1060, 1840 1160, 1910 1140"/>
<path d="M 1920 980 C 2020 1060, 2000 1160, 1930 1140"/>
<path d="M 1920 940 L 1920 1130"/>
<path d="M 1920 940 L 1890 870"/>
<path d="M 1920 940 L 1950 870"/>
</g><text x="1275" y="3160" text-anchor="middle" font-family="Arial, sans-serif" font-size="120" font-weight="700" fill="black">Spring Basket</text></svg>